<mxfile host="app.diagrams.net" modified="2020-04-17T08:44:55.314Z" agent="5.0 (Windows NT 10.0; Win64; x64) AppleWebKit/537.36 (KHTML, like Gecko) Chrome/81.0.4044.92 Safari/537.36" etag="9ngujEih095zLw62DPIX" version="12.9.14" type="github">
  <diagram id="DN_JDYelwI-e4BV0x_p0" name="Page-1">
    <mxGraphModel dx="1338" dy="1482" grid="1" gridSize="10" guides="1" tooltips="1" connect="1" arrows="1" fold="1" page="1" pageScale="1" pageWidth="827" pageHeight="1169" math="0" shadow="0">
      <root>
        <mxCell id="0" />
        <mxCell id="1" parent="0" />
        <mxCell id="W8oFfhN4CYwsVUqukFXb-8" style="edgeStyle=orthogonalEdgeStyle;rounded=0;orthogonalLoop=1;jettySize=auto;html=1;" edge="1" parent="1" source="3FOx8teTCuhA1tWj-IpD-3" target="W8oFfhN4CYwsVUqukFXb-2">
          <mxGeometry relative="1" as="geometry">
            <Array as="points" />
          </mxGeometry>
        </mxCell>
        <mxCell id="3FOx8teTCuhA1tWj-IpD-3" value="Start" style="rounded=1;whiteSpace=wrap;html=1;" parent="1" vertex="1">
          <mxGeometry x="334" y="-1160" width="120" height="40" as="geometry" />
        </mxCell>
        <mxCell id="W8oFfhN4CYwsVUqukFXb-10" style="edgeStyle=orthogonalEdgeStyle;rounded=0;orthogonalLoop=1;jettySize=auto;html=1;entryX=0.5;entryY=0;entryDx=0;entryDy=0;" edge="1" parent="1" source="W8oFfhN4CYwsVUqukFXb-2" target="W8oFfhN4CYwsVUqukFXb-9">
          <mxGeometry relative="1" as="geometry" />
        </mxCell>
        <mxCell id="W8oFfhN4CYwsVUqukFXb-2" value="Input&lt;blockquote style=&quot;margin: 0 0 0 40px ; border: none ; padding: 0px&quot;&gt;&lt;div&gt;&lt;span&gt;select&lt;/span&gt;&lt;/div&gt;&lt;/blockquote&gt;" style="html=1;strokeWidth=2;shape=manualInput;whiteSpace=wrap;rounded=1;size=26;arcSize=19;align=center;verticalAlign=middle;" vertex="1" parent="1">
          <mxGeometry x="314" y="-1081" width="160" height="82" as="geometry" />
        </mxCell>
        <mxCell id="W8oFfhN4CYwsVUqukFXb-11" style="edgeStyle=orthogonalEdgeStyle;rounded=0;orthogonalLoop=1;jettySize=auto;html=1;" edge="1" parent="1" source="W8oFfhN4CYwsVUqukFXb-9" target="W8oFfhN4CYwsVUqukFXb-12">
          <mxGeometry relative="1" as="geometry">
            <mxPoint x="270" y="-736" as="targetPoint" />
          </mxGeometry>
        </mxCell>
        <mxCell id="W8oFfhN4CYwsVUqukFXb-15" style="edgeStyle=orthogonalEdgeStyle;rounded=0;orthogonalLoop=1;jettySize=auto;html=1;" edge="1" parent="1" source="W8oFfhN4CYwsVUqukFXb-9" target="W8oFfhN4CYwsVUqukFXb-16">
          <mxGeometry relative="1" as="geometry">
            <mxPoint x="530" y="-760" as="targetPoint" />
          </mxGeometry>
        </mxCell>
        <mxCell id="W8oFfhN4CYwsVUqukFXb-9" value="select == A" style="rhombus;whiteSpace=wrap;html=1;align=center;" vertex="1" parent="1">
          <mxGeometry x="332" y="-936" width="124" height="100" as="geometry" />
        </mxCell>
        <mxCell id="W8oFfhN4CYwsVUqukFXb-12" value="deret()" style="shape=process;whiteSpace=wrap;html=1;backgroundOutline=1;" vertex="1" parent="1">
          <mxGeometry x="210" y="-759" width="120" height="60" as="geometry" />
        </mxCell>
        <mxCell id="W8oFfhN4CYwsVUqukFXb-14" value="True" style="text;html=1;align=center;verticalAlign=middle;resizable=0;points=[];autosize=1;" vertex="1" parent="1">
          <mxGeometry x="290" y="-916" width="40" height="20" as="geometry" />
        </mxCell>
        <mxCell id="W8oFfhN4CYwsVUqukFXb-16" value="gg()" style="shape=process;whiteSpace=wrap;html=1;backgroundOutline=1;" vertex="1" parent="1">
          <mxGeometry x="474" y="-759" width="120" height="60" as="geometry" />
        </mxCell>
        <mxCell id="W8oFfhN4CYwsVUqukFXb-17" value="False" style="text;html=1;align=center;verticalAlign=middle;resizable=0;points=[];autosize=1;" vertex="1" parent="1">
          <mxGeometry x="465" y="-916" width="50" height="20" as="geometry" />
        </mxCell>
        <mxCell id="W8oFfhN4CYwsVUqukFXb-114" style="edgeStyle=orthogonalEdgeStyle;rounded=0;orthogonalLoop=1;jettySize=auto;html=1;entryX=0.49;entryY=0;entryDx=0;entryDy=0;entryPerimeter=0;" edge="1" parent="1" source="W8oFfhN4CYwsVUqukFXb-18" target="W8oFfhN4CYwsVUqukFXb-104">
          <mxGeometry relative="1" as="geometry" />
        </mxCell>
        <mxCell id="W8oFfhN4CYwsVUqukFXb-18" value="deret()" style="rounded=1;whiteSpace=wrap;html=1;align=center;" vertex="1" parent="1">
          <mxGeometry x="50" y="-650" width="100" height="30" as="geometry" />
        </mxCell>
        <mxCell id="W8oFfhN4CYwsVUqukFXb-111" style="edgeStyle=orthogonalEdgeStyle;rounded=0;orthogonalLoop=1;jettySize=auto;html=1;entryX=0.521;entryY=0;entryDx=0;entryDy=0;entryPerimeter=0;" edge="1" parent="1" source="W8oFfhN4CYwsVUqukFXb-99" target="W8oFfhN4CYwsVUqukFXb-22">
          <mxGeometry relative="1" as="geometry" />
        </mxCell>
        <mxCell id="W8oFfhN4CYwsVUqukFXb-99" value="&lt;div&gt;&lt;span&gt;nilai_awal&lt;/span&gt;&lt;/div&gt;&lt;div&gt;&lt;span&gt;nilai_akhir&lt;/span&gt;&lt;/div&gt;" style="html=1;strokeWidth=2;shape=manualInput;whiteSpace=wrap;rounded=1;size=26;arcSize=11;align=center;" vertex="1" parent="1">
          <mxGeometry x="32.5" y="-502" width="140" height="80" as="geometry" />
        </mxCell>
        <mxCell id="W8oFfhN4CYwsVUqukFXb-28" style="edgeStyle=orthogonalEdgeStyle;rounded=0;orthogonalLoop=1;jettySize=auto;html=1;" edge="1" parent="1" target="W8oFfhN4CYwsVUqukFXb-29">
          <mxGeometry relative="1" as="geometry">
            <mxPoint x="100" y="-330" as="targetPoint" />
            <mxPoint x="100" y="-370" as="sourcePoint" />
          </mxGeometry>
        </mxCell>
        <mxCell id="W8oFfhN4CYwsVUqukFXb-22" value="int i = nilai_awal" style="rounded=0;whiteSpace=wrap;html=1;" vertex="1" parent="1">
          <mxGeometry x="40" y="-400" width="120" height="30" as="geometry" />
        </mxCell>
        <mxCell id="W8oFfhN4CYwsVUqukFXb-30" style="edgeStyle=orthogonalEdgeStyle;rounded=0;orthogonalLoop=1;jettySize=auto;html=1;" edge="1" parent="1" source="W8oFfhN4CYwsVUqukFXb-29" target="W8oFfhN4CYwsVUqukFXb-31">
          <mxGeometry relative="1" as="geometry">
            <mxPoint x="100" y="-210" as="targetPoint" />
          </mxGeometry>
        </mxCell>
        <mxCell id="W8oFfhN4CYwsVUqukFXb-33" style="edgeStyle=orthogonalEdgeStyle;rounded=0;orthogonalLoop=1;jettySize=auto;html=1;" edge="1" parent="1" source="W8oFfhN4CYwsVUqukFXb-29" target="W8oFfhN4CYwsVUqukFXb-34">
          <mxGeometry relative="1" as="geometry">
            <mxPoint x="200" y="-290" as="targetPoint" />
          </mxGeometry>
        </mxCell>
        <mxCell id="W8oFfhN4CYwsVUqukFXb-29" value="i&amp;lt;= nilai_akhir" style="rhombus;whiteSpace=wrap;html=1;" vertex="1" parent="1">
          <mxGeometry x="50" y="-330" width="100" height="80" as="geometry" />
        </mxCell>
        <mxCell id="W8oFfhN4CYwsVUqukFXb-35" style="edgeStyle=orthogonalEdgeStyle;rounded=0;orthogonalLoop=1;jettySize=auto;html=1;" edge="1" parent="1" source="W8oFfhN4CYwsVUqukFXb-31" target="W8oFfhN4CYwsVUqukFXb-40">
          <mxGeometry relative="1" as="geometry">
            <mxPoint x="100" y="-180" as="targetPoint" />
          </mxGeometry>
        </mxCell>
        <mxCell id="W8oFfhN4CYwsVUqukFXb-31" value="i++" style="rounded=0;whiteSpace=wrap;html=1;" vertex="1" parent="1">
          <mxGeometry x="55" y="-220" width="90" height="20" as="geometry" />
        </mxCell>
        <mxCell id="W8oFfhN4CYwsVUqukFXb-34" value="selesai" style="rounded=1;whiteSpace=wrap;html=1;" vertex="1" parent="1">
          <mxGeometry x="194" y="-300" width="56" height="20" as="geometry" />
        </mxCell>
        <mxCell id="W8oFfhN4CYwsVUqukFXb-37" value="False" style="text;html=1;align=center;verticalAlign=middle;resizable=0;points=[];autosize=1;" vertex="1" parent="1">
          <mxGeometry x="140" y="-320" width="50" height="20" as="geometry" />
        </mxCell>
        <mxCell id="W8oFfhN4CYwsVUqukFXb-38" value="True" style="text;html=1;align=center;verticalAlign=middle;resizable=0;points=[];autosize=1;" vertex="1" parent="1">
          <mxGeometry x="110" y="-250" width="40" height="20" as="geometry" />
        </mxCell>
        <mxCell id="W8oFfhN4CYwsVUqukFXb-43" style="edgeStyle=orthogonalEdgeStyle;rounded=0;orthogonalLoop=1;jettySize=auto;html=1;" edge="1" parent="1" source="W8oFfhN4CYwsVUqukFXb-40" target="W8oFfhN4CYwsVUqukFXb-47">
          <mxGeometry relative="1" as="geometry">
            <mxPoint x="100" y="-40" as="targetPoint" />
          </mxGeometry>
        </mxCell>
        <mxCell id="W8oFfhN4CYwsVUqukFXb-40" value="i%2 == 0" style="rhombus;whiteSpace=wrap;html=1;" vertex="1" parent="1">
          <mxGeometry x="60" y="-180" width="80" height="80" as="geometry" />
        </mxCell>
        <mxCell id="W8oFfhN4CYwsVUqukFXb-41" style="edgeStyle=orthogonalEdgeStyle;rounded=0;orthogonalLoop=1;jettySize=auto;html=1;" edge="1" parent="1" target="W8oFfhN4CYwsVUqukFXb-42">
          <mxGeometry relative="1" as="geometry">
            <mxPoint x="190" y="-140" as="targetPoint" />
            <mxPoint x="140" y="-140" as="sourcePoint" />
          </mxGeometry>
        </mxCell>
        <mxCell id="W8oFfhN4CYwsVUqukFXb-42" value="selesai" style="rounded=1;whiteSpace=wrap;html=1;" vertex="1" parent="1">
          <mxGeometry x="184" y="-150" width="56" height="20" as="geometry" />
        </mxCell>
        <mxCell id="W8oFfhN4CYwsVUqukFXb-48" style="edgeStyle=orthogonalEdgeStyle;rounded=0;orthogonalLoop=1;jettySize=auto;html=1;" edge="1" parent="1" source="W8oFfhN4CYwsVUqukFXb-47">
          <mxGeometry relative="1" as="geometry">
            <mxPoint x="100.00000000000023" y="60" as="targetPoint" />
          </mxGeometry>
        </mxCell>
        <mxCell id="W8oFfhN4CYwsVUqukFXb-47" value="&lt;div style=&quot;text-align: left&quot;&gt;&lt;span&gt;Input&lt;/span&gt;&lt;/div&gt;&lt;blockquote style=&quot;margin: 0 0 0 40px ; border: none ; padding: 0px&quot;&gt;&lt;/blockquote&gt;&lt;span&gt;genap[i] = i&lt;/span&gt;&lt;br&gt;&lt;span&gt;jumlah_genap = jumlah_genap + 1&lt;/span&gt;" style="shape=parallelogram;perimeter=parallelogramPerimeter;whiteSpace=wrap;html=1;align=center;" vertex="1" parent="1">
          <mxGeometry x="-85" y="-40" width="370" height="70" as="geometry" />
        </mxCell>
        <mxCell id="W8oFfhN4CYwsVUqukFXb-52" style="edgeStyle=orthogonalEdgeStyle;rounded=0;orthogonalLoop=1;jettySize=auto;html=1;" edge="1" parent="1">
          <mxGeometry relative="1" as="geometry">
            <mxPoint x="100" y="150" as="targetPoint" />
            <mxPoint x="100.00000000000023" y="120" as="sourcePoint" />
          </mxGeometry>
        </mxCell>
        <mxCell id="W8oFfhN4CYwsVUqukFXb-70" style="edgeStyle=orthogonalEdgeStyle;rounded=0;orthogonalLoop=1;jettySize=auto;html=1;" edge="1" parent="1" source="W8oFfhN4CYwsVUqukFXb-71" target="W8oFfhN4CYwsVUqukFXb-74">
          <mxGeometry relative="1" as="geometry">
            <mxPoint x="100" y="220" as="targetPoint" />
          </mxGeometry>
        </mxCell>
        <mxCell id="W8oFfhN4CYwsVUqukFXb-71" value="int i = nilai_awal" style="rounded=0;whiteSpace=wrap;html=1;" vertex="1" parent="1">
          <mxGeometry x="40" y="150" width="120" height="30" as="geometry" />
        </mxCell>
        <mxCell id="W8oFfhN4CYwsVUqukFXb-72" style="edgeStyle=orthogonalEdgeStyle;rounded=0;orthogonalLoop=1;jettySize=auto;html=1;" edge="1" parent="1" source="W8oFfhN4CYwsVUqukFXb-74" target="W8oFfhN4CYwsVUqukFXb-76">
          <mxGeometry relative="1" as="geometry">
            <mxPoint x="100" y="340" as="targetPoint" />
          </mxGeometry>
        </mxCell>
        <mxCell id="W8oFfhN4CYwsVUqukFXb-73" style="edgeStyle=orthogonalEdgeStyle;rounded=0;orthogonalLoop=1;jettySize=auto;html=1;" edge="1" parent="1" source="W8oFfhN4CYwsVUqukFXb-74" target="W8oFfhN4CYwsVUqukFXb-77">
          <mxGeometry relative="1" as="geometry">
            <mxPoint x="200" y="260" as="targetPoint" />
          </mxGeometry>
        </mxCell>
        <mxCell id="W8oFfhN4CYwsVUqukFXb-74" value="i&amp;lt;= nilai_akhir" style="rhombus;whiteSpace=wrap;html=1;" vertex="1" parent="1">
          <mxGeometry x="50" y="220" width="100" height="80" as="geometry" />
        </mxCell>
        <mxCell id="W8oFfhN4CYwsVUqukFXb-75" style="edgeStyle=orthogonalEdgeStyle;rounded=0;orthogonalLoop=1;jettySize=auto;html=1;" edge="1" parent="1" source="W8oFfhN4CYwsVUqukFXb-76" target="W8oFfhN4CYwsVUqukFXb-81">
          <mxGeometry relative="1" as="geometry">
            <mxPoint x="100" y="370" as="targetPoint" />
          </mxGeometry>
        </mxCell>
        <mxCell id="W8oFfhN4CYwsVUqukFXb-76" value="i++" style="rounded=0;whiteSpace=wrap;html=1;" vertex="1" parent="1">
          <mxGeometry x="55" y="330" width="90" height="20" as="geometry" />
        </mxCell>
        <mxCell id="W8oFfhN4CYwsVUqukFXb-77" value="selesai" style="rounded=1;whiteSpace=wrap;html=1;" vertex="1" parent="1">
          <mxGeometry x="194" y="250" width="56" height="20" as="geometry" />
        </mxCell>
        <mxCell id="W8oFfhN4CYwsVUqukFXb-78" value="False" style="text;html=1;align=center;verticalAlign=middle;resizable=0;points=[];autosize=1;" vertex="1" parent="1">
          <mxGeometry x="140" y="230" width="50" height="20" as="geometry" />
        </mxCell>
        <mxCell id="W8oFfhN4CYwsVUqukFXb-79" value="True" style="text;html=1;align=center;verticalAlign=middle;resizable=0;points=[];autosize=1;" vertex="1" parent="1">
          <mxGeometry x="110" y="300" width="40" height="20" as="geometry" />
        </mxCell>
        <mxCell id="W8oFfhN4CYwsVUqukFXb-80" style="edgeStyle=orthogonalEdgeStyle;rounded=0;orthogonalLoop=1;jettySize=auto;html=1;" edge="1" parent="1" source="W8oFfhN4CYwsVUqukFXb-81" target="W8oFfhN4CYwsVUqukFXb-85">
          <mxGeometry relative="1" as="geometry">
            <mxPoint x="100" y="510" as="targetPoint" />
          </mxGeometry>
        </mxCell>
        <mxCell id="W8oFfhN4CYwsVUqukFXb-81" value="i%2 &amp;gt; 0" style="rhombus;whiteSpace=wrap;html=1;" vertex="1" parent="1">
          <mxGeometry x="60" y="370" width="80" height="80" as="geometry" />
        </mxCell>
        <mxCell id="W8oFfhN4CYwsVUqukFXb-82" style="edgeStyle=orthogonalEdgeStyle;rounded=0;orthogonalLoop=1;jettySize=auto;html=1;" edge="1" parent="1" target="W8oFfhN4CYwsVUqukFXb-83">
          <mxGeometry relative="1" as="geometry">
            <mxPoint x="190" y="410" as="targetPoint" />
            <mxPoint x="140.00000000000045" y="410" as="sourcePoint" />
          </mxGeometry>
        </mxCell>
        <mxCell id="W8oFfhN4CYwsVUqukFXb-83" value="selesai" style="rounded=1;whiteSpace=wrap;html=1;" vertex="1" parent="1">
          <mxGeometry x="184" y="400" width="56" height="20" as="geometry" />
        </mxCell>
        <mxCell id="W8oFfhN4CYwsVUqukFXb-84" style="edgeStyle=orthogonalEdgeStyle;rounded=0;orthogonalLoop=1;jettySize=auto;html=1;" edge="1" parent="1" source="W8oFfhN4CYwsVUqukFXb-85">
          <mxGeometry relative="1" as="geometry">
            <mxPoint x="100.00000000000023" y="610" as="targetPoint" />
          </mxGeometry>
        </mxCell>
        <mxCell id="W8oFfhN4CYwsVUqukFXb-85" value="&lt;div style=&quot;text-align: left&quot;&gt;&lt;span&gt;Input&lt;/span&gt;&lt;/div&gt;&lt;blockquote style=&quot;margin: 0 0 0 40px ; border: none ; padding: 0px&quot;&gt;&lt;/blockquote&gt;&lt;span&gt;ganjil[i] = i&lt;/span&gt;&lt;br&gt;&lt;span&gt;jumlah_ganjil = jumlah_ganjil + 1&lt;/span&gt;" style="shape=parallelogram;perimeter=parallelogramPerimeter;whiteSpace=wrap;html=1;align=center;" vertex="1" parent="1">
          <mxGeometry x="-85" y="510" width="370" height="70" as="geometry" />
        </mxCell>
        <mxCell id="W8oFfhN4CYwsVUqukFXb-87" value="&lt;div style=&quot;text-align: left&quot;&gt;&lt;span style=&quot;font-family: &amp;#34;helvetica&amp;#34;&quot;&gt;Output&lt;/span&gt;&lt;/div&gt;&lt;blockquote style=&quot;margin: 0 0 0 40px ; border: none ; padding: 0px&quot;&gt;&lt;div&gt;&lt;span&gt;genap[i]&lt;/span&gt;&lt;/div&gt;&lt;/blockquote&gt;" style="shape=parallelogram;perimeter=parallelogramPerimeter;whiteSpace=wrap;html=1;align=center;" vertex="1" parent="1">
          <mxGeometry x="-10" y="60" width="210" height="60" as="geometry" />
        </mxCell>
        <mxCell id="W8oFfhN4CYwsVUqukFXb-90" style="edgeStyle=orthogonalEdgeStyle;rounded=0;orthogonalLoop=1;jettySize=auto;html=1;" edge="1" parent="1" source="W8oFfhN4CYwsVUqukFXb-89" target="W8oFfhN4CYwsVUqukFXb-91">
          <mxGeometry relative="1" as="geometry">
            <mxPoint x="95" y="720" as="targetPoint" />
          </mxGeometry>
        </mxCell>
        <mxCell id="W8oFfhN4CYwsVUqukFXb-89" value="&lt;br&gt;&lt;div style=&quot;text-align: left&quot;&gt;&lt;span style=&quot;font-family: &amp;#34;helvetica&amp;#34;&quot;&gt;Output&lt;/span&gt;&lt;/div&gt;&lt;blockquote style=&quot;margin: 0 0 0 40px ; border: none ; padding: 0px&quot;&gt;&lt;div&gt;&lt;span&gt;ganjil[i]&lt;/span&gt;&lt;/div&gt;&lt;/blockquote&gt;" style="shape=parallelogram;perimeter=parallelogramPerimeter;whiteSpace=wrap;html=1;align=center;" vertex="1" parent="1">
          <mxGeometry x="-10" y="610" width="210" height="60" as="geometry" />
        </mxCell>
        <mxCell id="W8oFfhN4CYwsVUqukFXb-94" style="edgeStyle=orthogonalEdgeStyle;rounded=0;orthogonalLoop=1;jettySize=auto;html=1;" edge="1" parent="1" source="W8oFfhN4CYwsVUqukFXb-91" target="W8oFfhN4CYwsVUqukFXb-95">
          <mxGeometry relative="1" as="geometry">
            <mxPoint x="95" y="830" as="targetPoint" />
          </mxGeometry>
        </mxCell>
        <mxCell id="W8oFfhN4CYwsVUqukFXb-91" value="&lt;div style=&quot;text-align: left&quot;&gt;&lt;span&gt;Output&lt;/span&gt;&lt;/div&gt;&lt;blockquote style=&quot;margin: 0 0 0 40px ; border: none ; padding: 0px&quot;&gt;jumlah_genap&lt;br&gt;jumlah_ganjil&lt;/blockquote&gt;" style="shape=parallelogram;perimeter=parallelogramPerimeter;whiteSpace=wrap;html=1;" vertex="1" parent="1">
          <mxGeometry x="-12.5" y="730" width="215" height="60" as="geometry" />
        </mxCell>
        <mxCell id="W8oFfhN4CYwsVUqukFXb-95" value="selesai" style="rounded=1;whiteSpace=wrap;html=1;" vertex="1" parent="1">
          <mxGeometry x="52.5" y="840" width="85" height="30" as="geometry" />
        </mxCell>
        <mxCell id="W8oFfhN4CYwsVUqukFXb-113" style="edgeStyle=orthogonalEdgeStyle;rounded=0;orthogonalLoop=1;jettySize=auto;html=1;" edge="1" parent="1" source="W8oFfhN4CYwsVUqukFXb-104">
          <mxGeometry relative="1" as="geometry">
            <mxPoint x="102" y="-509.9999999999999" as="targetPoint" />
          </mxGeometry>
        </mxCell>
        <mxCell id="W8oFfhN4CYwsVUqukFXb-104" value="jumlah_genap =0&lt;br&gt;jumlah_ganjil = 0" style="shape=hexagon;perimeter=hexagonPerimeter2;whiteSpace=wrap;html=1;align=center;" vertex="1" parent="1">
          <mxGeometry x="5.75" y="-600" width="192.5" height="64" as="geometry" />
        </mxCell>
        <mxCell id="W8oFfhN4CYwsVUqukFXb-116" style="edgeStyle=orthogonalEdgeStyle;rounded=0;orthogonalLoop=1;jettySize=auto;html=1;" edge="1" parent="1" source="W8oFfhN4CYwsVUqukFXb-115" target="W8oFfhN4CYwsVUqukFXb-119">
          <mxGeometry relative="1" as="geometry">
            <mxPoint x="610.0588235294117" y="-600.0000000000002" as="targetPoint" />
          </mxGeometry>
        </mxCell>
        <mxCell id="W8oFfhN4CYwsVUqukFXb-115" value="gg()" style="rounded=1;whiteSpace=wrap;html=1;align=center;" vertex="1" parent="1">
          <mxGeometry x="560" y="-650" width="100" height="30" as="geometry" />
        </mxCell>
        <mxCell id="W8oFfhN4CYwsVUqukFXb-120" style="edgeStyle=orthogonalEdgeStyle;rounded=0;orthogonalLoop=1;jettySize=auto;html=1;" edge="1" parent="1" source="W8oFfhN4CYwsVUqukFXb-119" target="W8oFfhN4CYwsVUqukFXb-121">
          <mxGeometry relative="1" as="geometry">
            <mxPoint x="610" y="-520.0000000000002" as="targetPoint" />
          </mxGeometry>
        </mxCell>
        <mxCell id="W8oFfhN4CYwsVUqukFXb-119" value="ttl= 0" style="shape=hexagon;perimeter=hexagonPerimeter2;whiteSpace=wrap;html=1;" vertex="1" parent="1">
          <mxGeometry x="542.5" y="-584" width="135" height="32" as="geometry" />
        </mxCell>
        <mxCell id="W8oFfhN4CYwsVUqukFXb-125" style="edgeStyle=orthogonalEdgeStyle;rounded=0;orthogonalLoop=1;jettySize=auto;html=1;" edge="1" parent="1" source="W8oFfhN4CYwsVUqukFXb-121" target="W8oFfhN4CYwsVUqukFXb-126">
          <mxGeometry relative="1" as="geometry">
            <mxPoint x="610" y="-450" as="targetPoint" />
          </mxGeometry>
        </mxCell>
        <mxCell id="W8oFfhN4CYwsVUqukFXb-121" value="index" style="html=1;strokeWidth=2;shape=manualInput;whiteSpace=wrap;rounded=1;size=26;arcSize=11;" vertex="1" parent="1">
          <mxGeometry x="560" y="-530.0000000000002" width="100" height="60" as="geometry" />
        </mxCell>
        <mxCell id="W8oFfhN4CYwsVUqukFXb-127" style="edgeStyle=orthogonalEdgeStyle;rounded=0;orthogonalLoop=1;jettySize=auto;html=1;" edge="1" parent="1" source="W8oFfhN4CYwsVUqukFXb-126" target="W8oFfhN4CYwsVUqukFXb-128">
          <mxGeometry relative="1" as="geometry">
            <mxPoint x="610" y="-410" as="targetPoint" />
          </mxGeometry>
        </mxCell>
        <mxCell id="W8oFfhN4CYwsVUqukFXb-126" value="i = 0" style="rounded=0;whiteSpace=wrap;html=1;" vertex="1" parent="1">
          <mxGeometry x="580" y="-450" width="60" height="20" as="geometry" />
        </mxCell>
        <mxCell id="W8oFfhN4CYwsVUqukFXb-129" style="edgeStyle=orthogonalEdgeStyle;rounded=0;orthogonalLoop=1;jettySize=auto;html=1;" edge="1" parent="1" source="W8oFfhN4CYwsVUqukFXb-128" target="W8oFfhN4CYwsVUqukFXb-130">
          <mxGeometry relative="1" as="geometry">
            <mxPoint x="530" y="-370" as="targetPoint" />
          </mxGeometry>
        </mxCell>
        <mxCell id="W8oFfhN4CYwsVUqukFXb-133" style="edgeStyle=orthogonalEdgeStyle;rounded=0;orthogonalLoop=1;jettySize=auto;html=1;" edge="1" parent="1" source="W8oFfhN4CYwsVUqukFXb-128" target="W8oFfhN4CYwsVUqukFXb-134">
          <mxGeometry relative="1" as="geometry">
            <mxPoint x="610" y="-310" as="targetPoint" />
          </mxGeometry>
        </mxCell>
        <mxCell id="W8oFfhN4CYwsVUqukFXb-128" value="i &amp;lt; index" style="rhombus;whiteSpace=wrap;html=1;" vertex="1" parent="1">
          <mxGeometry x="570" y="-410" width="80" height="80" as="geometry" />
        </mxCell>
        <mxCell id="W8oFfhN4CYwsVUqukFXb-130" value="selesai" style="rounded=1;whiteSpace=wrap;html=1;" vertex="1" parent="1">
          <mxGeometry x="474" y="-378.75" width="50" height="17.5" as="geometry" />
        </mxCell>
        <mxCell id="W8oFfhN4CYwsVUqukFXb-137" style="edgeStyle=orthogonalEdgeStyle;rounded=0;orthogonalLoop=1;jettySize=auto;html=1;" edge="1" parent="1" source="W8oFfhN4CYwsVUqukFXb-134">
          <mxGeometry relative="1" as="geometry">
            <mxPoint x="610" y="-210" as="targetPoint" />
          </mxGeometry>
        </mxCell>
        <mxCell id="W8oFfhN4CYwsVUqukFXb-134" value="&lt;blockquote style=&quot;margin: 0 0 0 40px ; border: none ; padding: 0px&quot;&gt;&lt;div&gt;&lt;span&gt;Output&amp;nbsp;&lt;/span&gt;&lt;/div&gt;&lt;/blockquote&gt;&lt;blockquote style=&quot;margin: 0 0 0 40px ; border: none ; padding: 0px&quot;&gt;&lt;blockquote style=&quot;margin: 0 0 0 40px ; border: none ; padding: 0px&quot;&gt;i&lt;/blockquote&gt;&lt;/blockquote&gt;" style="shape=parallelogram;perimeter=parallelogramPerimeter;whiteSpace=wrap;html=1;align=left;" vertex="1" parent="1">
          <mxGeometry x="535" y="-300" width="150" height="60" as="geometry" />
        </mxCell>
        <mxCell id="W8oFfhN4CYwsVUqukFXb-139" style="edgeStyle=orthogonalEdgeStyle;rounded=0;orthogonalLoop=1;jettySize=auto;html=1;" edge="1" parent="1" source="W8oFfhN4CYwsVUqukFXb-138" target="W8oFfhN4CYwsVUqukFXb-140">
          <mxGeometry relative="1" as="geometry">
            <mxPoint x="610" y="-130" as="targetPoint" />
          </mxGeometry>
        </mxCell>
        <mxCell id="W8oFfhN4CYwsVUqukFXb-138" value="data[i]" style="html=1;strokeWidth=2;shape=manualInput;whiteSpace=wrap;rounded=1;size=26;arcSize=11;" vertex="1" parent="1">
          <mxGeometry x="560" y="-220.00000000000023" width="100" height="60" as="geometry" />
        </mxCell>
        <mxCell id="W8oFfhN4CYwsVUqukFXb-141" style="edgeStyle=orthogonalEdgeStyle;rounded=0;orthogonalLoop=1;jettySize=auto;html=1;entryX=1;entryY=0.5;entryDx=0;entryDy=0;" edge="1" parent="1" source="W8oFfhN4CYwsVUqukFXb-140" target="W8oFfhN4CYwsVUqukFXb-128">
          <mxGeometry relative="1" as="geometry">
            <mxPoint x="720" y="-380" as="targetPoint" />
            <Array as="points">
              <mxPoint x="720" y="-120" />
              <mxPoint x="720" y="-370" />
            </Array>
          </mxGeometry>
        </mxCell>
        <mxCell id="W8oFfhN4CYwsVUqukFXb-140" value="i++" style="rounded=0;whiteSpace=wrap;html=1;" vertex="1" parent="1">
          <mxGeometry x="570" y="-130" width="80" height="20" as="geometry" />
        </mxCell>
      </root>
    </mxGraphModel>
  </diagram>
</mxfile>
